#!OML:ASF I:\Actors\actors\Patient Classification 1\Patient 1\Session 1\Subject1.ASF
:FULLY-SPECIFIED
:DEGREES
519
root -1.8992 17.563 8.39174 4.21344 26.1142 -5.17186
lowerback 5.09805 6.09851 5.24383
upperback -9.10863 9.10824 1.23399
thorax -12.1198 4.009 -2.91711
lowerneck -7.63158 -10.33 -9.04598
upperneck 22.4576 -15.7746 12.2184
head 10.1112 -6.87559 3.87485
rclavicle 1.98288e-014 1.74931e-014
rhumerus 2.32244 -0.0976838 -77.5248
rradius 33.3802
rwrist 3.18877
rhand -4.20205 -39.808
rfingers 7.12502
rthumb 21.5599 -68.6279
lclavicle 1.98288e-014 1.74931e-014
lhumerus -76.1657 41.1192 0.104167
lradius 19.8647
lwrist -39.7222
lhand -31.9445 -30.6954
lfingers 7.12502
lthumb -5.19517 -0.779038
rfemur 5.99133 15.5027 32.5537
rtibia -0.656762
rfoot -21.8959 -36.043
rtoes 25.7463
lfemur -5.67612 -32.1564 -5.75032
ltibia 3.75031
lfoot -5.74298 16.3897
ltoes -22.093
520
root -1.89622 17.5618 8.36886 4.2857 25.8879 -5.34514
lowerback 5.23845 6.05019 5.36171
upperback -9.08107 9.08809 1.43601
thorax -12.1954 3.99572 -2.77865
lowerneck -7.65877 -10.1929 -8.71029
upperneck 22.2345 -15.8116 13.0794
head 10.0936 -6.7821 4.11854
rclavicle 1.68371e-013 4.90998e-014
rhumerus 3.54619 0.616248 -76.9206
rradius 34.4548
rwrist 4.52817
rhand -0.848654 -40.2306
rfingers 7.12502
rthumb 24.7773 -68.6457
lclavicle 1.68371e-013 4.90998e-014
lhumerus -74.9153 39.7758 2.37973
lradius 19.2376
lwrist -38.5137
lhand -31.6507 -30.2939
lfingers 7.12502
lthumb -4.91144 -0.370778
rfemur 5.79803 15.5006 32.5866
rtibia -0.73164
rfoot -21.6357 -35.8409
rtoes 25.3213
lfemur -5.85271 -32.2155 -5.54381
ltibia 3.80314
lfoot -5.78714 16.8542
ltoes -21.9597
521
root -1.8916 17.5619 8.34436 4.54673 25.7474 -5.46058
lowerback 5.26722 6.04016 5.6048
upperback -9.14143 9.12086 1.52384
thorax -12.2627 3.99063 -2.82638
lowerneck -7.75186 -10.1988 -8.27936
upperneck 22.3427 -16.0569 13.7286
head 10.2094 -6.7793 4.24231
rclavicle 7.20594e-014 3.4191e-014
rhumerus 4.72774 2.81456 -76.0287
rradius 35.9934
rwrist 1.21921
rhand -4.0581 -39.3853
rfingers 7.12502
rthumb 21.6982 -68.1893
lclavicle 7.20594e-014 3.4191e-014
lhumerus -78.723 40.9781 -2.63333
lradius 19.5007
lwrist -43.4791
lhand -31.0928 -30.4409
lfingers 7.12502
lthumb -4.37271 -0.506064
rfemur 5.48224 15.7235 32.5659
rtibia -0.889759
rfoot -21.4207 -35.8979
rtoes 25.0903
lfemur -6.32488 -32.2165 -5.22246
ltibia 3.87956
lfoot -5.72174 17.1111
ltoes -21.8652
522
root -1.8889 17.5653 8.32075 4.9748 25.6054 -5.42907
lowerback 5.2137 6.07783 5.81176
upperback -9.25396 9.20039 1.50611
thorax -12.3229 4.00572 -2.96633
lowerneck -7.74093 -10.2294 -7.72611
upperneck 22.4583 -16.3333 14.2613
head 10.2917 -6.79452 4.30689
rclavicle -2.03754e-015 -1.31198e-014
rhumerus 6.20862 3.9263 -75.0767
rradius 37.6223
rwrist 0.493266
rhand -3.71907 -39.5512
rfingers 7.12502
rthumb 22.0237 -68.3173
lclavicle -2.03754e-015 -1.31198e-014
lhumerus -80.2175 41.206 -4.64411
lradius 19.5314
lwrist -45.7667
lhand -30.906 -30.2571
lfingers 7.12502
lthumb -4.19232 -0.318629
rfemur 5.07782 16.1668 32.4283
rtibia -1.04608
rfoot -21.2921 -36.1542
rtoes 25.0224
lfemur -6.86639 -32.25 -4.96457
ltibia 3.83784
lfoot -5.62173 17.3347
ltoes -21.6691
523
root -1.88684 17.5738 8.2981 5.41552 25.4786 -5.28511
lowerback 5.19204 6.0999 5.99953
upperback -9.35577 9.25586 1.4683
thorax -12.3908 4.00872 -3.11761
lowerneck -7.60739 -10.1813 -7.13264
upperneck 22.503 -16.4369 14.5718
head 10.276 -6.7592 4.31743
rclavicle -4.48259e-014 2.82274e-014
rhumerus 7.89826 4.91506 -74.048
rradius 39.1614
rwrist -0.37576
rhand -3.85016 -39.4054
rfingers 7.12502
rthumb 21.8978 -68.1862
lclavicle -4.48259e-014 2.82274e-014
lhumerus -80.5932 41.0945 -5.1907
lradius 19.4784
lwrist -46.3215
lhand -30.8866 -29.9302
lfingers 7.12502
lthumb -4.17368 0.00867877
rfemur 4.71024 16.7579 32.2117
rtibia -1.17862
rfoot -21.2859 -36.5601
rtoes 25.1723
lfemur -7.31721 -32.3876 -4.82628
ltibia 3.7096
lfoot -5.49418 17.5288
ltoes -21.2811
524
root -1.88543 17.584 8.27714 5.83973 25.4132 -5.10285
lowerback 5.17255 6.10639 6.19239
upperback -9.44862 9.2943 1.46342
thorax -12.4564 4.00498 -3.23393
lowerneck -7.39882 -10.102 -6.70523
upperneck 22.5687 -16.4275 14.7069
head 10.2347 -6.70746 4.31264
rclavicle -5.52621e-014 -2.38542e-014
rhumerus 9.68562 5.63657 -72.9043
rradius 40.5417
rwrist -1.19351
rhand -3.74089 -39.3205
rfingers 7.12502
rthumb 22.0028 -68.089
lclavicle -5.52621e-014 -2.38542e-014
lhumerus -80.2099 40.7949 -4.67376
lradius 19.3078
lwrist -45.6785
lhand -31.0156 -29.5722
lfingers 7.12502
lthumb -4.29821 0.36414
rfemur 4.39368 17.5022 31.9958
rtibia -1.31948
rfoot -21.3935 -37.1368
rtoes 25.6834
lfemur -7.78621 -32.5578 -4.69974
ltibia 3.61184
lfoot -5.20267 17.5948
ltoes -21.21
525
root -1.88519 17.5951 8.25903 6.25708 25.403 -4.78627
lowerback 5.16577 6.10178 6.25829
upperback -9.51703 9.3013 1.45126
thorax -12.5208 3.99767 -3.28692
lowerneck -7.33546 -10.02 -6.55752
upperneck 22.9346 -16.3548 14.5959
head 10.3219 -6.65301 4.27136
rclavicle 8.61732e-014 2.18663e-014
rhumerus 11.5347 6.07569 -71.7341
rradius 41.6003
rwrist -1.9003
rhand -3.60472 -39.265
rfingers 7.12502
rthumb 22.1335 -68.018
lclavicle 8.61732e-014 2.18663e-014
lhumerus -78.8259 40.1799 -2.64333
lradius 19.1609
lwrist -43.5878
lhand -31.2748 -29.2638
lfingers 7.12502
lthumb -4.54846 0.667408
rfemur 4.13822 18.2332 31.6633
rtibia -1.43763
rfoot -21.5971 -37.752
rtoes 26.3201
lfemur -8.26999 -32.5358 -4.73447
ltibia 3.62701
lfoot -4.76608 17.3581
ltoes -21.7278
526
root -1.88491 17.6069 8.24408 6.59253 25.4743 -4.43883
lowerback 5.18481 6.09489 6.34383
upperback -9.55457 9.30236 1.40482
thorax -12.5558 3.98478 -3.38703
lowerneck -7.35591 -9.96728 -6.24915
upperneck 23.3929 -16.2653 14.1092
head 10.4052 -6.60675 4.06906
rclavicle -9.41245e-014 -2.98177e-014
rhumerus 13.3535 5.95503 -70.8445
rradius 42.188
rwrist -2.14127
rhand -3.56349 -39.0888
rfingers 7.12502
rthumb 22.1731 -67.8372
lclavicle -9.41245e-014 -2.98177e-014
lhumerus -77.5384 39.7351 -0.823347
lradius 19.2606
lwrist -41.5605
lhand -31.6429 -29.0023
lfingers 7.12502
lthumb -4.90392 0.920979
rfemur 3.95262 18.6823 31.2827
rtibia -1.51193
rfoot -21.8365 -38.1671
rtoes 26.8428
lfemur -8.6682 -32.4016 -4.86008
ltibia 3.6512
lfoot -4.43671 16.8836
ltoes -21.8362
527
root -1.88499 17.6166 8.23156 6.77601 25.6387 -4.19621
lowerback 5.21651 6.09033 6.56514
upperback -9.5542 9.32109 1.37469
thorax -12.5358 3.97137 -3.54227
lowerneck -7.36854 -9.91945 -6.105
upperneck 23.8584 -16.1675 13.6658
head 10.5088 -6.56725 3.90965
rclavicle -5.34731e-014 -4.21423e-014
rhumerus 14.9634 5.19237 -70.3967
rradius 42.3983
rwrist -1.88156
rhand -3.49607 -38.9062
rfingers 7.12502
rthumb 22.2378 -67.6468
lclavicle -5.34731e-014 -4.21423e-014
lhumerus -76.5649 39.5608 0.443346
lradius 19.4875
lwrist -40.1154
lhand -32.0516 -28.8548
lfingers 7.12502
lthumb -5.29855 1.05897
rfemur 3.88626 18.9518 31.04
rtibia -1.582
rfoot -22.0907 -38.503
rtoes 27.2747
lfemur -8.91008 -32.405 -4.94136
ltibia 3.56899
lfoot -4.14653 16.4138
ltoes -21.6996
528
root -1.88772 17.6238 8.22126 6.81535 25.8542 -4.05024
lowerback 5.29031 6.06792 6.79207
upperback -9.52382 9.32208 1.38495
thorax -12.5149 3.95132 -3.65847
lowerneck -7.43818 -9.80202 -6.29424
upperneck 24.3614 -16.0314 13.6505
head 10.7073 -6.49089 3.96098
rclavicle 8.23962e-014 1.51076e-014
rhumerus 16.2685 4.34202 -70.171
rradius 42.491
rwrist -1.68884
rhand -3.57099 -38.7853
rfingers 7.12502
rthumb 22.1659 -67.5346
lclavicle 8.23962e-014 1.51076e-014
lhumerus -75.6495 39.4345 1.61851
lradius 19.7752
lwrist -38.807
lhand -32.2618 -29.0764
lfingers 7.12502
lthumb -5.50151 0.832218
rfemur 3.92627 19.2113 30.9601
rtibia -1.63549
rfoot -22.3843 -38.9196
rtoes 27.6903
lfemur -9.03475 -32.4885 -4.97805
ltibia 3.49103
lfoot -3.69026 15.9484
ltoes -22.373
